<mxfile host="app.diagrams.net" agent="Mozilla/5.0 (Macintosh; Intel Mac OS X 10_15_7) AppleWebKit/537.36 (KHTML, like Gecko) Chrome/136.0.0.0 Safari/537.36" version="27.0.6">
  <diagram id="prtHgNgQTEPvFCAcTncT" name="Page-1">
    <mxGraphModel grid="1" page="1" gridSize="10" guides="1" tooltips="1" connect="1" arrows="1" fold="1" pageScale="1" pageWidth="827" pageHeight="1169" math="0" shadow="0">
      <root>
        <mxCell id="0" />
        <mxCell id="1" parent="0" />
        <mxCell id="CnZX-VRFrFXwGGvPjDSQ-1" value="" style="shape=umlLifeline;perimeter=lifelinePerimeter;whiteSpace=wrap;html=1;container=1;dropTarget=0;collapsible=0;recursiveResize=0;outlineConnect=0;portConstraint=eastwest;newEdgeStyle={&quot;curved&quot;:0,&quot;rounded&quot;:0};participant=umlActor;fontStyle=1;fontSize=13;" vertex="1" parent="1">
          <mxGeometry x="-1299.34" y="-1030" width="21.84" height="1210" as="geometry" />
        </mxCell>
        <mxCell id="CnZX-VRFrFXwGGvPjDSQ-2" value="" style="html=1;points=[[0,0,0,0,5],[0,1,0,0,-5],[1,0,0,0,5],[1,1,0,0,-5]];perimeter=orthogonalPerimeter;outlineConnect=0;targetShapes=umlLifeline;portConstraint=eastwest;newEdgeStyle={&quot;curved&quot;:0,&quot;rounded&quot;:0};fontStyle=1;fontSize=13;" vertex="1" parent="CnZX-VRFrFXwGGvPjDSQ-1">
          <mxGeometry x="5" y="60" width="10" height="1150" as="geometry" />
        </mxCell>
        <mxCell id="CnZX-VRFrFXwGGvPjDSQ-3" value="utilisateur(client,vendeur,admin)" style="text;html=1;align=center;verticalAlign=middle;resizable=0;points=[];autosize=1;strokeColor=none;fillColor=none;fontStyle=1;fontSize=13;" vertex="1" parent="1">
          <mxGeometry x="-1389" y="-997" width="210" height="30" as="geometry" />
        </mxCell>
        <mxCell id="CnZX-VRFrFXwGGvPjDSQ-4" value=":système" style="shape=umlLifeline;perimeter=lifelinePerimeter;whiteSpace=wrap;html=1;container=1;dropTarget=0;collapsible=0;recursiveResize=0;outlineConnect=0;portConstraint=eastwest;newEdgeStyle={&quot;curved&quot;:0,&quot;rounded&quot;:0};fontStyle=1;fontSize=13;" vertex="1" parent="1">
          <mxGeometry x="-1120" y="-1020" width="100" height="1210" as="geometry" />
        </mxCell>
        <mxCell id="CnZX-VRFrFXwGGvPjDSQ-5" value="" style="html=1;points=[[0,0,0,0,5],[0,1,0,0,-5],[1,0,0,0,5],[1,1,0,0,-5]];perimeter=orthogonalPerimeter;outlineConnect=0;targetShapes=umlLifeline;portConstraint=eastwest;newEdgeStyle={&quot;curved&quot;:0,&quot;rounded&quot;:0};fontStyle=1;fontSize=13;" vertex="1" parent="CnZX-VRFrFXwGGvPjDSQ-4">
          <mxGeometry x="45" y="60" width="10" height="980" as="geometry" />
        </mxCell>
        <mxCell id="CnZX-VRFrFXwGGvPjDSQ-6" value=":BDD" style="shape=umlLifeline;perimeter=lifelinePerimeter;whiteSpace=wrap;html=1;container=1;dropTarget=0;collapsible=0;recursiveResize=0;outlineConnect=0;portConstraint=eastwest;newEdgeStyle={&quot;curved&quot;:0,&quot;rounded&quot;:0};fontStyle=1;fontSize=13;" vertex="1" parent="1">
          <mxGeometry x="-906.25" y="-1020" width="246.25" height="1200" as="geometry" />
        </mxCell>
        <mxCell id="CnZX-VRFrFXwGGvPjDSQ-97" value="" style="html=1;points=[[0,0,0,0,5],[0,1,0,0,-5],[1,0,0,0,5],[1,1,0,0,-5]];perimeter=orthogonalPerimeter;outlineConnect=0;targetShapes=umlLifeline;portConstraint=eastwest;newEdgeStyle={&quot;curved&quot;:0,&quot;rounded&quot;:0};fontStyle=1" vertex="1" parent="CnZX-VRFrFXwGGvPjDSQ-6">
          <mxGeometry x="117.25" y="990" width="10" height="30" as="geometry" />
        </mxCell>
        <mxCell id="CnZX-VRFrFXwGGvPjDSQ-8" value="" style="endArrow=classic;html=1;rounded=0;fontStyle=1;fontSize=13;" edge="1" parent="1" source="CnZX-VRFrFXwGGvPjDSQ-2">
          <mxGeometry width="50" height="50" relative="1" as="geometry">
            <mxPoint x="-1280" y="-930" as="sourcePoint" />
            <mxPoint x="-1073.5" y="-930" as="targetPoint" />
            <Array as="points">
              <mxPoint x="-1188.5" y="-930" />
              <mxPoint x="-1158.5" y="-930" />
            </Array>
          </mxGeometry>
        </mxCell>
        <mxCell id="CnZX-VRFrFXwGGvPjDSQ-10" value="1-demande d&#39;authentification" style="text;html=1;align=center;verticalAlign=middle;resizable=0;points=[];autosize=1;strokeColor=none;fillColor=none;fontStyle=1;fontSize=13;" vertex="1" parent="1">
          <mxGeometry x="-1272.5" y="-960" width="190" height="30" as="geometry" />
        </mxCell>
        <mxCell id="CnZX-VRFrFXwGGvPjDSQ-11" value="" style="html=1;verticalAlign=bottom;endArrow=open;dashed=1;endSize=8;curved=0;rounded=0;fontStyle=1;fontSize=13;" edge="1" parent="1" target="CnZX-VRFrFXwGGvPjDSQ-2">
          <mxGeometry relative="1" as="geometry">
            <mxPoint x="-1075" y="-880" as="sourcePoint" />
            <mxPoint x="-1280" y="-880" as="targetPoint" />
          </mxGeometry>
        </mxCell>
        <mxCell id="CnZX-VRFrFXwGGvPjDSQ-12" value="1.1- interface d&#39;authentification" style="text;html=1;align=center;verticalAlign=middle;resizable=0;points=[];autosize=1;strokeColor=none;fillColor=none;fontStyle=1;fontSize=13;" vertex="1" parent="1">
          <mxGeometry x="-1277.5" y="-910" width="200" height="30" as="geometry" />
        </mxCell>
        <mxCell id="CnZX-VRFrFXwGGvPjDSQ-14" value="&lt;br style=&quot;font-size: 13px;&quot;&gt;[Mot de passe != oubliée]" style="text;html=1;align=center;verticalAlign=middle;resizable=0;points=[];autosize=1;strokeColor=none;fillColor=none;fontStyle=1;fontSize=13;" vertex="1" parent="1">
          <mxGeometry x="-1462.5" y="-805" width="170" height="40" as="geometry" />
        </mxCell>
        <mxCell id="CnZX-VRFrFXwGGvPjDSQ-15" value="2-Saisir info(email, mot passe)" style="text;html=1;align=center;verticalAlign=middle;resizable=0;points=[];autosize=1;strokeColor=none;fillColor=none;fontStyle=1;fontSize=13;" vertex="1" parent="1">
          <mxGeometry x="-1278.1599999999999" y="-835" width="200" height="30" as="geometry" />
        </mxCell>
        <mxCell id="CnZX-VRFrFXwGGvPjDSQ-16" value="" style="endArrow=open;endFill=1;endSize=12;html=1;rounded=0;fontFamily=Helvetica;fontSize=13;fontColor=default;fontStyle=1" edge="1" parent="1" source="CnZX-VRFrFXwGGvPjDSQ-2">
          <mxGeometry width="160" relative="1" as="geometry">
            <mxPoint x="-1278.1599999999999" y="-800" as="sourcePoint" />
            <mxPoint x="-1073.16" y="-800" as="targetPoint" />
          </mxGeometry>
        </mxCell>
        <mxCell id="CnZX-VRFrFXwGGvPjDSQ-22" value="" style="endArrow=open;endFill=1;endSize=12;html=1;rounded=0;fontFamily=Helvetica;fontSize=13;fontColor=default;fontStyle=1" edge="1" parent="1" target="CnZX-VRFrFXwGGvPjDSQ-25">
          <mxGeometry width="160" relative="1" as="geometry">
            <mxPoint x="-1065" y="-750" as="sourcePoint" />
            <mxPoint x="-835.5" y="-750" as="targetPoint" />
            <Array as="points">
              <mxPoint x="-1010" y="-750" />
            </Array>
          </mxGeometry>
        </mxCell>
        <mxCell id="CnZX-VRFrFXwGGvPjDSQ-24" value="2.2-Verifierinfo(email, mot passe)" style="text;html=1;align=center;verticalAlign=middle;resizable=0;points=[];autosize=1;strokeColor=none;fillColor=none;fontStyle=1;fontSize=13;" vertex="1" parent="1">
          <mxGeometry x="-1052.5" y="-780" width="210" height="30" as="geometry" />
        </mxCell>
        <mxCell id="CnZX-VRFrFXwGGvPjDSQ-25" value="" style="html=1;points=[[0,0,0,0,5],[0,1,0,0,-5],[1,0,0,0,5],[1,1,0,0,-5]];perimeter=orthogonalPerimeter;outlineConnect=0;targetShapes=umlLifeline;portConstraint=eastwest;newEdgeStyle={&quot;curved&quot;:0,&quot;rounded&quot;:0};align=center;verticalAlign=middle;fontFamily=Helvetica;fontSize=13;fontColor=default;fillColor=default;gradientColor=none;fontStyle=1" vertex="1" parent="1">
          <mxGeometry x="-789" y="-750" width="10" height="220" as="geometry" />
        </mxCell>
        <mxCell id="CnZX-VRFrFXwGGvPjDSQ-26" value="" style="html=1;points=[[0,0,0,0,5],[0,1,0,0,-5],[1,0,0,0,5],[1,1,0,0,-5]];perimeter=orthogonalPerimeter;outlineConnect=0;targetShapes=umlLifeline;portConstraint=eastwest;newEdgeStyle={&quot;curved&quot;:0,&quot;rounded&quot;:0};align=center;verticalAlign=middle;fontFamily=Helvetica;fontSize=13;fontColor=default;fillColor=none;gradientColor=none;fontStyle=1" vertex="1" parent="1">
          <mxGeometry x="-784.5" y="-728" width="10" height="30" as="geometry" />
        </mxCell>
        <mxCell id="CnZX-VRFrFXwGGvPjDSQ-28" value="alt" style="shape=umlFrame;whiteSpace=wrap;html=1;pointerEvents=0;fontStyle=1;fontSize=13;" vertex="1" parent="1">
          <mxGeometry x="-1460" y="-680" width="743" height="170" as="geometry" />
        </mxCell>
        <mxCell id="CnZX-VRFrFXwGGvPjDSQ-29" value="" style="endArrow=none;dashed=1;html=1;rounded=0;fontFamily=Helvetica;fontSize=13;fontColor=default;fontStyle=1;entryX=0.999;entryY=0.553;entryDx=0;entryDy=0;entryPerimeter=0;" edge="1" parent="1">
          <mxGeometry width="50" height="50" relative="1" as="geometry">
            <mxPoint x="-1460" y="-587" as="sourcePoint" />
            <mxPoint x="-717.7429999999999" y="-586.99" as="targetPoint" />
          </mxGeometry>
        </mxCell>
        <mxCell id="CnZX-VRFrFXwGGvPjDSQ-30" value="[ les infos correctes ]&amp;nbsp;" style="text;html=1;align=center;verticalAlign=middle;resizable=0;points=[];autosize=1;strokeColor=none;fillColor=none;fontFamily=Helvetica;fontSize=13;fontColor=default;fontStyle=1" vertex="1" parent="1">
          <mxGeometry x="-1452.5" y="-650" width="150" height="30" as="geometry" />
        </mxCell>
        <mxCell id="CnZX-VRFrFXwGGvPjDSQ-31" value="[SINON]" style="text;html=1;align=center;verticalAlign=middle;resizable=0;points=[];autosize=1;strokeColor=none;fillColor=none;fontFamily=Helvetica;fontSize=13;fontColor=default;fontStyle=1" vertex="1" parent="1">
          <mxGeometry x="-1450" y="-580" width="70" height="30" as="geometry" />
        </mxCell>
        <mxCell id="CnZX-VRFrFXwGGvPjDSQ-32" value="" style="html=1;verticalAlign=bottom;endArrow=open;dashed=1;endSize=8;curved=0;rounded=0;fontStyle=1;fontSize=13;" edge="1" parent="1" source="CnZX-VRFrFXwGGvPjDSQ-25">
          <mxGeometry relative="1" as="geometry">
            <mxPoint x="-845" y="-624.8399999999999" as="sourcePoint" />
            <mxPoint x="-1070" y="-625" as="targetPoint" />
          </mxGeometry>
        </mxCell>
        <mxCell id="CnZX-VRFrFXwGGvPjDSQ-33" value="" style="html=1;verticalAlign=bottom;endArrow=open;dashed=1;endSize=8;curved=0;rounded=0;fontStyle=1;fontSize=13;exitX=0;exitY=1;exitDx=0;exitDy=-5;exitPerimeter=0;" edge="1" parent="1" source="CnZX-VRFrFXwGGvPjDSQ-25" target="CnZX-VRFrFXwGGvPjDSQ-5">
          <mxGeometry relative="1" as="geometry">
            <mxPoint x="-820" y="-540" as="sourcePoint" />
            <mxPoint x="-1060" y="-540" as="targetPoint" />
          </mxGeometry>
        </mxCell>
        <mxCell id="CnZX-VRFrFXwGGvPjDSQ-34" value="2.5.1- informations incorrectes" style="text;html=1;align=center;verticalAlign=middle;resizable=0;points=[];autosize=1;strokeColor=none;fillColor=none;fontFamily=Helvetica;fontSize=13;fontColor=default;fontStyle=1" vertex="1" parent="1">
          <mxGeometry x="-1032.5" y="-570" width="200" height="30" as="geometry" />
        </mxCell>
        <mxCell id="CnZX-VRFrFXwGGvPjDSQ-35" value="2.4.1-Informations correctes" style="text;html=1;align=center;verticalAlign=middle;resizable=0;points=[];autosize=1;strokeColor=none;fillColor=none;fontFamily=Helvetica;fontSize=13;fontColor=default;fontStyle=1" vertex="1" parent="1">
          <mxGeometry x="-1037.5" y="-650" width="190" height="30" as="geometry" />
        </mxCell>
        <mxCell id="CnZX-VRFrFXwGGvPjDSQ-36" value="" style="html=1;verticalAlign=bottom;endArrow=open;dashed=1;endSize=8;curved=0;rounded=0;fontStyle=1;fontSize=13;" edge="1" parent="1" target="CnZX-VRFrFXwGGvPjDSQ-2">
          <mxGeometry relative="1" as="geometry">
            <mxPoint x="-1078.13" y="-609.6600000000001" as="sourcePoint" />
            <mxPoint x="-1280" y="-609.9999999999999" as="targetPoint" />
          </mxGeometry>
        </mxCell>
        <mxCell id="CnZX-VRFrFXwGGvPjDSQ-37" value="2.4.2-connexion reussie&lt;div&gt;&lt;font style=&quot;color: rgb(51, 51, 255); background-color: rgb(206, 210, 217); font-size: 12px;&quot;&gt;GET&amp;nbsp; &amp;nbsp; /api/products&lt;/font&gt;&lt;/div&gt;" style="text;html=1;align=center;verticalAlign=middle;resizable=0;points=[];autosize=1;strokeColor=none;fillColor=none;fontFamily=Helvetica;fontSize=13;fontColor=default;fontStyle=1" vertex="1" parent="1">
          <mxGeometry x="-1259.5" y="-649" width="160" height="40" as="geometry" />
        </mxCell>
        <mxCell id="CnZX-VRFrFXwGGvPjDSQ-38" value="2.5.2 - Connexion échouée" style="text;html=1;align=center;verticalAlign=middle;resizable=0;points=[];autosize=1;strokeColor=none;fillColor=none;fontFamily=Helvetica;fontSize=13;fontColor=default;fontStyle=1" vertex="1" parent="1">
          <mxGeometry x="-1269" y="-560" width="180" height="30" as="geometry" />
        </mxCell>
        <mxCell id="CnZX-VRFrFXwGGvPjDSQ-39" value="" style="html=1;verticalAlign=bottom;endArrow=open;dashed=1;endSize=8;curved=0;rounded=0;fontStyle=1;fontSize=13;" edge="1" parent="1" target="CnZX-VRFrFXwGGvPjDSQ-2">
          <mxGeometry relative="1" as="geometry">
            <mxPoint x="-1076.87" y="-530" as="sourcePoint" />
            <mxPoint x="-1276.87" y="-530" as="targetPoint" />
          </mxGeometry>
        </mxCell>
        <mxCell id="CnZX-VRFrFXwGGvPjDSQ-61" value="opt" style="shape=umlFrame;whiteSpace=wrap;html=1;pointerEvents=0;fontStyle=1;fontSize=13;" vertex="1" parent="1">
          <mxGeometry x="-1520" y="-835" width="860" height="350" as="geometry" />
        </mxCell>
        <mxCell id="CnZX-VRFrFXwGGvPjDSQ-63" value="opt" style="shape=umlFrame;whiteSpace=wrap;html=1;pointerEvents=0;fontStyle=1;fontSize=13;" vertex="1" parent="1">
          <mxGeometry x="-1520" y="-470" width="860" height="555" as="geometry" />
        </mxCell>
        <mxCell id="CnZX-VRFrFXwGGvPjDSQ-64" value="&lt;span style=&quot;&quot;&gt;mot de passe == Oubliée]&lt;/span&gt;" style="text;html=1;align=left;verticalAlign=middle;resizable=0;points=[];autosize=1;strokeColor=none;fillColor=none;fontStyle=1;fontSize=13;" vertex="1" parent="1">
          <mxGeometry x="-1483.9299999999998" y="-425" width="170" height="30" as="geometry" />
        </mxCell>
        <mxCell id="CnZX-VRFrFXwGGvPjDSQ-65" value="4-Mot de passe Oubliée" style="html=1;verticalAlign=bottom;endArrow=block;curved=0;rounded=0;fontStyle=1;fontSize=13;" edge="1" parent="1" source="CnZX-VRFrFXwGGvPjDSQ-2">
          <mxGeometry width="80" relative="1" as="geometry">
            <mxPoint x="-1280" y="-392" as="sourcePoint" />
            <mxPoint x="-1075" y="-391.7600000000002" as="targetPoint" />
          </mxGeometry>
        </mxCell>
        <mxCell id="CnZX-VRFrFXwGGvPjDSQ-72" value="" style="endArrow=open;endFill=1;endSize=12;html=1;rounded=0;fontStyle=1;fontSize=13;" edge="1" parent="1">
          <mxGeometry width="160" relative="1" as="geometry">
            <mxPoint x="-1280" y="-280" as="sourcePoint" />
            <mxPoint x="-1070" y="-280" as="targetPoint" />
          </mxGeometry>
        </mxCell>
        <mxCell id="CnZX-VRFrFXwGGvPjDSQ-73" value="4.2-Saisir le code" style="text;html=1;align=center;verticalAlign=middle;resizable=0;points=[];autosize=1;strokeColor=none;fillColor=none;fontStyle=1;fontSize=13;" vertex="1" parent="1">
          <mxGeometry x="-1234.13" y="-312" width="120" height="30" as="geometry" />
        </mxCell>
        <mxCell id="CnZX-VRFrFXwGGvPjDSQ-74" value="4.3-validation" style="html=1;verticalAlign=bottom;endArrow=block;curved=0;rounded=0;fontStyle=1;fontSize=13;" edge="1" parent="1">
          <mxGeometry width="80" relative="1" as="geometry">
            <mxPoint x="-1278" y="-241" as="sourcePoint" />
            <mxPoint x="-1075" y="-241" as="targetPoint" />
          </mxGeometry>
        </mxCell>
        <mxCell id="CnZX-VRFrFXwGGvPjDSQ-77" value="alt" style="shape=umlFrame;whiteSpace=wrap;html=1;pointerEvents=0;fontStyle=1" vertex="1" parent="1">
          <mxGeometry x="-1460" y="-170" width="740" height="225" as="geometry" />
        </mxCell>
        <mxCell id="CnZX-VRFrFXwGGvPjDSQ-79" value="&lt;font style=&quot;font-size: 13px;&quot;&gt;[code incorrecte]&lt;/font&gt;" style="text;html=1;align=center;verticalAlign=middle;resizable=0;points=[];autosize=1;strokeColor=none;fillColor=none;fontStyle=1" vertex="1" parent="1">
          <mxGeometry x="-1412.5" y="-140" width="120" height="30" as="geometry" />
        </mxCell>
        <mxCell id="CnZX-VRFrFXwGGvPjDSQ-81" value="&lt;font style=&quot;font-size: 13px;&quot;&gt;4.5.1-message erreur&lt;/font&gt;" style="text;html=1;align=center;verticalAlign=middle;resizable=0;points=[];autosize=1;strokeColor=none;fillColor=none;fontStyle=1" vertex="1" parent="1">
          <mxGeometry x="-1252.5" y="-110" width="150" height="30" as="geometry" />
        </mxCell>
        <mxCell id="T4jmuB7K8HLjBQ9jWKb5-4" value="&lt;font style=&quot;font-size: 13px;&quot;&gt;4.1-code de confirmation&lt;/font&gt;" style="text;html=1;align=center;verticalAlign=middle;resizable=0;points=[];autosize=1;strokeColor=none;fillColor=none;fontStyle=1" vertex="1" parent="1">
          <mxGeometry x="-1262.5" y="-360" width="170" height="30" as="geometry" />
        </mxCell>
        <mxCell id="T4jmuB7K8HLjBQ9jWKb5-5" value="" style="html=1;points=[[0,0,0,0,5],[0,1,0,0,-5],[1,0,0,0,5],[1,1,0,0,-5]];perimeter=orthogonalPerimeter;outlineConnect=0;targetShapes=umlLifeline;portConstraint=eastwest;newEdgeStyle={&quot;curved&quot;:0,&quot;rounded&quot;:0};fontStyle=1" vertex="1" parent="1">
          <mxGeometry x="-1072" y="-215" width="10" height="35" as="geometry" />
        </mxCell>
        <mxCell id="T4jmuB7K8HLjBQ9jWKb5-6" value="&lt;font style=&quot;font-size: 13px;&quot;&gt;4.4 -vérification()&lt;/font&gt;" style="html=1;align=left;spacingLeft=2;endArrow=block;rounded=0;edgeStyle=orthogonalEdgeStyle;curved=0;rounded=0;fontStyle=1" edge="1" parent="1" target="T4jmuB7K8HLjBQ9jWKb5-5">
          <mxGeometry relative="1" as="geometry">
            <mxPoint x="-1067" y="-235" as="sourcePoint" />
            <Array as="points">
              <mxPoint x="-1037" y="-205" />
            </Array>
          </mxGeometry>
        </mxCell>
        <mxCell id="CnZX-VRFrFXwGGvPjDSQ-93" value="&lt;font style=&quot;font-size: 13px;&quot;&gt;connexion reussie&lt;/font&gt;" style="html=1;verticalAlign=bottom;endArrow=open;dashed=1;endSize=8;curved=0;rounded=0;fontStyle=1" edge="1" parent="1">
          <mxGeometry relative="1" as="geometry">
            <mxPoint x="-1077.5" y="20" as="sourcePoint" />
            <mxPoint x="-1285" y="20" as="targetPoint" />
          </mxGeometry>
        </mxCell>
        <mxCell id="T4jmuB7K8HLjBQ9jWKb5-8" value="" style="endArrow=none;dashed=1;html=1;rounded=0;entryX=1.005;entryY=0.524;entryDx=0;entryDy=0;entryPerimeter=0;exitX=0.001;exitY=0.517;exitDx=0;exitDy=0;exitPerimeter=0;fontStyle=1" edge="1" parent="1">
          <mxGeometry width="50" height="50" relative="1" as="geometry">
            <mxPoint x="-1459.2600000000002" y="-60.67499999999973" as="sourcePoint" />
            <mxPoint x="-716.3000000000002" y="-59.09999999999991" as="targetPoint" />
          </mxGeometry>
        </mxCell>
        <mxCell id="zgDkwZbHPY9_dlKA8o4R-1" value="" style="html=1;verticalAlign=bottom;endArrow=open;dashed=1;endSize=8;curved=0;rounded=0;fontStyle=1;fontSize=13;" edge="1" parent="1" target="CnZX-VRFrFXwGGvPjDSQ-2">
          <mxGeometry relative="1" as="geometry">
            <mxPoint x="-1076.57" y="-329.6600000000001" as="sourcePoint" />
            <mxPoint x="-1278.44" y="-329.9999999999999" as="targetPoint" />
          </mxGeometry>
        </mxCell>
        <mxCell id="zgDkwZbHPY9_dlKA8o4R-4" value="" style="html=1;verticalAlign=bottom;endArrow=open;dashed=1;endSize=8;curved=0;rounded=0;fontStyle=1" edge="1" parent="1">
          <mxGeometry relative="1" as="geometry">
            <mxPoint x="-1073.25" y="-77" as="sourcePoint" />
            <mxPoint x="-1290" y="-77" as="targetPoint" />
          </mxGeometry>
        </mxCell>
        <mxCell id="zgDkwZbHPY9_dlKA8o4R-5" value="" style="endArrow=open;endFill=1;endSize=12;html=1;rounded=0;fontStyle=1;fontSize=13;" edge="1" parent="1" source="CnZX-VRFrFXwGGvPjDSQ-5" target="CnZX-VRFrFXwGGvPjDSQ-97">
          <mxGeometry width="160" relative="1" as="geometry">
            <mxPoint x="-1062" y="-30" as="sourcePoint" />
            <mxPoint x="-792.5" y="-30" as="targetPoint" />
          </mxGeometry>
        </mxCell>
        <mxCell id="zgDkwZbHPY9_dlKA8o4R-6" value="&lt;span&gt;&lt;font style=&quot;font-size: 13px;&quot;&gt;4.5.2.1-nouveau mdps&lt;/font&gt;&lt;/span&gt;&lt;div&gt;&lt;span style=&quot;background-color: rgb(206, 210, 217);&quot;&gt;&lt;font style=&quot;color: rgb(51, 51, 255);&quot;&gt;POST&amp;nbsp; &amp;nbsp;/api/auth/password/reset&lt;/font&gt;&lt;/span&gt;&lt;/div&gt;" style="text;html=1;align=center;verticalAlign=middle;resizable=0;points=[];autosize=1;strokeColor=none;fillColor=none;fontStyle=1" vertex="1" parent="1">
          <mxGeometry x="-1027.5" y="-30" width="200" height="40" as="geometry" />
        </mxCell>
        <mxCell id="7uLASy11qQDv5mRjyqlD-7" value="&lt;font style=&quot;font-size: 13px;&quot;&gt;[sinon]&lt;/font&gt;" style="text;html=1;align=center;verticalAlign=middle;resizable=0;points=[];autosize=1;strokeColor=none;fillColor=none;fontStyle=1" vertex="1" parent="1">
          <mxGeometry x="-1380" y="-52" width="60" height="30" as="geometry" />
        </mxCell>
        <mxCell id="V1m76kbqOwn3M_USskFu-1" value="&lt;b&gt;Sd s&#39;authentifier&lt;/b&gt;" style="shape=umlFrame;whiteSpace=wrap;html=1;pointerEvents=0;width=170;height=40;" vertex="1" parent="1">
          <mxGeometry x="-1610" y="-1080" width="1040" height="1280" as="geometry" />
        </mxCell>
        <mxCell id="M7k2faQvnSYECm-mmbK3-1" value="&lt;b&gt;loop&lt;/b&gt;" style="shape=umlFrame;whiteSpace=wrap;html=1;pointerEvents=0;" vertex="1" parent="1">
          <mxGeometry x="-1580" y="-872" width="940" height="1010" as="geometry" />
        </mxCell>
        <mxCell id="M7k2faQvnSYECm-mmbK3-2" value="&lt;b&gt;&lt;font style=&quot;font-size: 13px;&quot;&gt;[Connexion échouée]&lt;/font&gt;&lt;/b&gt;" style="text;html=1;align=center;verticalAlign=middle;resizable=0;points=[];autosize=1;strokeColor=none;fillColor=none;" vertex="1" parent="1">
          <mxGeometry x="-1506" y="-872" width="160" height="30" as="geometry" />
        </mxCell>
        <mxCell id="vJeP0VPhgMoTz1RFs11S-3" value="&lt;font style=&quot;font-size: 13px;&quot;&gt;2.3 -vérification&lt;/font&gt;" style="html=1;align=left;spacingLeft=2;endArrow=block;rounded=0;edgeStyle=orthogonalEdgeStyle;curved=0;rounded=0;fontStyle=1" edge="1" parent="1">
          <mxGeometry relative="1" as="geometry">
            <mxPoint x="-779.5" y="-740.5" as="sourcePoint" />
            <Array as="points">
              <mxPoint x="-749.5" y="-710.5" />
            </Array>
            <mxPoint x="-774.5" y="-710.4857142857143" as="targetPoint" />
          </mxGeometry>
        </mxCell>
        <mxCell id="DTRC2cQxRpxJCTHsTAv7-1" value="" style="endArrow=classic;html=1;rounded=0;fontStyle=1;fontSize=13;" edge="1" parent="1">
          <mxGeometry width="50" height="50" relative="1" as="geometry">
            <mxPoint x="-1284.34" y="-764" as="sourcePoint" />
            <mxPoint x="-1075" y="-764" as="targetPoint" />
            <Array as="points">
              <mxPoint x="-1178.16" y="-764" />
            </Array>
          </mxGeometry>
        </mxCell>
        <mxCell id="CnZX-VRFrFXwGGvPjDSQ-19" value="2.1-Valider&lt;div&gt;&lt;br&gt;&lt;/div&gt;" style="text;html=1;align=center;verticalAlign=middle;resizable=0;points=[];autosize=1;strokeColor=none;fillColor=none;fontStyle=1;fontSize=13;" vertex="1" parent="1">
          <mxGeometry x="-1223.1299999999999" y="-800" width="90" height="40" as="geometry" />
        </mxCell>
        <mxCell id="DTRC2cQxRpxJCTHsTAv7-2" value="&lt;span style=&quot;color: rgb(51, 51, 255); font-weight: 700; background-color: rgb(206, 210, 217);&quot;&gt;&lt;font&gt;POST&amp;nbsp; &amp;nbsp;/api/auth/password/send-reset-code&lt;/font&gt;&lt;/span&gt;" style="text;html=1;align=center;verticalAlign=middle;resizable=0;points=[];autosize=1;strokeColor=none;fillColor=none;" vertex="1" parent="1">
          <mxGeometry x="-1314" y="-395" width="270" height="30" as="geometry" />
        </mxCell>
        <mxCell id="lK-CSRsW_Yzgoowql-DT-2" value="&lt;span style=&quot;color: rgb(51, 51, 255); font-weight: 700; background-color: rgb(206, 210, 217);&quot;&gt;&lt;font&gt;POST&amp;nbsp; &amp;nbsp;/api/auth/login&lt;/font&gt;&lt;/span&gt;" style="text;html=1;align=center;verticalAlign=middle;resizable=0;points=[];autosize=1;strokeColor=none;fillColor=none;" vertex="1" parent="1">
          <mxGeometry x="-1251" y="-787" width="150" height="30" as="geometry" />
        </mxCell>
      </root>
    </mxGraphModel>
  </diagram>
</mxfile>
